<mxfile host="app.diagrams.net" modified="2023-12-14T19:10:05.158Z" agent="Mozilla/5.0 (Windows NT 10.0; Win64; x64) AppleWebKit/537.36 (KHTML, like Gecko) Chrome/120.0.0.0 Safari/537.36" etag="hUKNzFWZyv7SeUvzOVED" version="22.1.9" type="device">
  <diagram name="Page-1" id="Op-U67xVwoSmAvyEHdcH">
    <mxGraphModel dx="371" dy="197" grid="1" gridSize="10" guides="1" tooltips="1" connect="1" arrows="1" fold="1" page="1" pageScale="1" pageWidth="850" pageHeight="1100" math="0" shadow="0">
      <root>
        <mxCell id="0" />
        <mxCell id="1" parent="0" />
        <mxCell id="aKK5p6N2bVfSeyx7iySC-1" value="" style="rounded=0;whiteSpace=wrap;html=1;fillColor=none;dashed=1;" parent="1" vertex="1">
          <mxGeometry x="30" y="40" width="220" height="50" as="geometry" />
        </mxCell>
        <mxCell id="pTm49G6YxPvq5-hJEJQ8-41" value="" style="rounded=0;whiteSpace=wrap;html=1;fillColor=none;" parent="1" vertex="1">
          <mxGeometry x="30" y="120" width="120" height="100" as="geometry" />
        </mxCell>
        <mxCell id="pTm49G6YxPvq5-hJEJQ8-1" value="TSP" style="text;html=1;strokeColor=none;fillColor=none;align=center;verticalAlign=middle;whiteSpace=wrap;rounded=0;" parent="1" vertex="1">
          <mxGeometry x="200" y="50" width="40" height="30" as="geometry" />
        </mxCell>
        <mxCell id="pTm49G6YxPvq5-hJEJQ8-2" value="STSP" style="text;html=1;strokeColor=none;fillColor=none;align=center;verticalAlign=middle;whiteSpace=wrap;rounded=0;" parent="1" vertex="1">
          <mxGeometry x="40" y="50" width="40" height="30" as="geometry" />
        </mxCell>
        <mxCell id="pTm49G6YxPvq5-hJEJQ8-4" value="ATSP" style="text;html=1;strokeColor=none;fillColor=none;align=center;verticalAlign=middle;whiteSpace=wrap;rounded=0;" parent="1" vertex="1">
          <mxGeometry x="120" y="50" width="40" height="30" as="geometry" />
        </mxCell>
        <mxCell id="pTm49G6YxPvq5-hJEJQ8-16" value="" style="rounded=0;whiteSpace=wrap;html=1;fillColor=none;dashed=1;" parent="1" vertex="1">
          <mxGeometry x="260" y="40" width="210" height="50" as="geometry" />
        </mxCell>
        <mxCell id="pTm49G6YxPvq5-hJEJQ8-17" value="" style="rounded=0;whiteSpace=wrap;html=1;fillColor=none;dashed=1;" parent="1" vertex="1">
          <mxGeometry x="260" y="100" width="210" height="120" as="geometry" />
        </mxCell>
        <mxCell id="pTm49G6YxPvq5-hJEJQ8-18" value="OP" style="text;html=1;strokeColor=none;fillColor=none;align=center;verticalAlign=middle;whiteSpace=wrap;rounded=0;" parent="1" vertex="1">
          <mxGeometry x="280" y="50" width="40" height="30" as="geometry" />
        </mxCell>
        <mxCell id="pTm49G6YxPvq5-hJEJQ8-19" value="" style="endArrow=classicThin;html=1;rounded=0;endFill=1;" parent="1" source="pTm49G6YxPvq5-hJEJQ8-1" target="pTm49G6YxPvq5-hJEJQ8-18" edge="1">
          <mxGeometry width="50" height="50" relative="1" as="geometry">
            <mxPoint x="210" y="118" as="sourcePoint" />
            <mxPoint x="170" y="134" as="targetPoint" />
          </mxGeometry>
        </mxCell>
        <mxCell id="pTm49G6YxPvq5-hJEJQ8-23" value="TTDP" style="text;html=1;strokeColor=none;fillColor=none;align=center;verticalAlign=middle;whiteSpace=wrap;rounded=0;" parent="1" vertex="1">
          <mxGeometry x="400" y="50" width="60" height="30" as="geometry" />
        </mxCell>
        <mxCell id="pTm49G6YxPvq5-hJEJQ8-24" value="" style="endArrow=classicThin;html=1;rounded=0;endFill=1;" parent="1" source="pTm49G6YxPvq5-hJEJQ8-18" target="pTm49G6YxPvq5-hJEJQ8-23" edge="1">
          <mxGeometry width="50" height="50" relative="1" as="geometry">
            <mxPoint x="210" y="114" as="sourcePoint" />
            <mxPoint x="290" y="91" as="targetPoint" />
          </mxGeometry>
        </mxCell>
        <mxCell id="pTm49G6YxPvq5-hJEJQ8-25" value="GTSP" style="text;html=1;align=center;verticalAlign=middle;whiteSpace=wrap;rounded=0;fontStyle=1" parent="1" vertex="1">
          <mxGeometry x="280" y="110" width="40" height="30" as="geometry" />
        </mxCell>
        <mxCell id="pTm49G6YxPvq5-hJEJQ8-26" value="" style="endArrow=classicThin;html=1;rounded=0;endFill=1;" parent="1" source="pTm49G6YxPvq5-hJEJQ8-1" target="pTm49G6YxPvq5-hJEJQ8-25" edge="1">
          <mxGeometry width="50" height="50" relative="1" as="geometry">
            <mxPoint x="250" y="104" as="sourcePoint" />
            <mxPoint x="330" y="81" as="targetPoint" />
          </mxGeometry>
        </mxCell>
        <mxCell id="pTm49G6YxPvq5-hJEJQ8-27" value="PCGTSP" style="text;html=1;align=center;verticalAlign=middle;whiteSpace=wrap;rounded=0;fontStyle=1;" parent="1" vertex="1">
          <mxGeometry x="400" y="110" width="60" height="30" as="geometry" />
        </mxCell>
        <mxCell id="pTm49G6YxPvq5-hJEJQ8-28" value="" style="endArrow=classicThin;html=1;rounded=0;endFill=1;" parent="1" source="pTm49G6YxPvq5-hJEJQ8-25" target="pTm49G6YxPvq5-hJEJQ8-27" edge="1">
          <mxGeometry width="50" height="50" relative="1" as="geometry">
            <mxPoint x="370" y="60" as="sourcePoint" />
            <mxPoint x="410" y="60" as="targetPoint" />
          </mxGeometry>
        </mxCell>
        <mxCell id="pTm49G6YxPvq5-hJEJQ8-29" value="TPQ" style="text;html=1;strokeColor=none;fillColor=none;align=center;verticalAlign=middle;whiteSpace=wrap;rounded=0;" parent="1" vertex="1">
          <mxGeometry x="280" y="170" width="40" height="30" as="geometry" />
        </mxCell>
        <mxCell id="pTm49G6YxPvq5-hJEJQ8-30" value="" style="endArrow=none;html=1;rounded=0;endFill=0;startArrow=none;startFill=0;" parent="1" source="pTm49G6YxPvq5-hJEJQ8-25" target="pTm49G6YxPvq5-hJEJQ8-29" edge="1">
          <mxGeometry width="50" height="50" relative="1" as="geometry">
            <mxPoint x="330" y="140" as="sourcePoint" />
            <mxPoint x="370" y="140" as="targetPoint" />
          </mxGeometry>
        </mxCell>
        <mxCell id="pTm49G6YxPvq5-hJEJQ8-31" value="OSR,&lt;br&gt;MRPSR" style="text;html=1;strokeColor=none;fillColor=none;align=center;verticalAlign=middle;whiteSpace=wrap;rounded=0;" parent="1" vertex="1">
          <mxGeometry x="400" y="170" width="60" height="40" as="geometry" />
        </mxCell>
        <mxCell id="pTm49G6YxPvq5-hJEJQ8-32" value="" style="endArrow=none;html=1;rounded=0;endFill=0;startArrow=none;startFill=0;" parent="1" source="pTm49G6YxPvq5-hJEJQ8-27" target="pTm49G6YxPvq5-hJEJQ8-31" edge="1">
          <mxGeometry width="50" height="50" relative="1" as="geometry">
            <mxPoint x="310" y="160" as="sourcePoint" />
            <mxPoint x="310" y="200" as="targetPoint" />
          </mxGeometry>
        </mxCell>
        <mxCell id="pTm49G6YxPvq5-hJEJQ8-34" value="" style="endArrow=classicThin;html=1;rounded=0;endFill=1;" parent="1" source="pTm49G6YxPvq5-hJEJQ8-2" target="pTm49G6YxPvq5-hJEJQ8-4" edge="1">
          <mxGeometry width="50" height="50" relative="1" as="geometry">
            <mxPoint x="250" y="103" as="sourcePoint" />
            <mxPoint x="330" y="77" as="targetPoint" />
          </mxGeometry>
        </mxCell>
        <mxCell id="pTm49G6YxPvq5-hJEJQ8-35" value="" style="endArrow=classicThin;html=1;rounded=0;endFill=1;" parent="1" source="pTm49G6YxPvq5-hJEJQ8-4" target="pTm49G6YxPvq5-hJEJQ8-1" edge="1">
          <mxGeometry width="50" height="50" relative="1" as="geometry">
            <mxPoint x="150" y="90" as="sourcePoint" />
            <mxPoint x="150" y="130" as="targetPoint" />
          </mxGeometry>
        </mxCell>
        <mxCell id="pTm49G6YxPvq5-hJEJQ8-36" value="similar" style="endArrow=none;rounded=0;endFill=0;html=1;" parent="1" edge="1">
          <mxGeometry width="50" height="50" relative="1" as="geometry">
            <mxPoint x="40" y="169.43" as="sourcePoint" />
            <mxPoint x="140" y="169.43" as="targetPoint" />
          </mxGeometry>
        </mxCell>
        <mxCell id="pTm49G6YxPvq5-hJEJQ8-40" value="Legend" style="text;html=1;strokeColor=none;fillColor=none;align=center;verticalAlign=middle;whiteSpace=wrap;rounded=0;fontStyle=1;spacingLeft=0;" parent="1" vertex="1">
          <mxGeometry x="30" y="120" width="120" height="30" as="geometry" />
        </mxCell>
        <mxCell id="pTm49G6YxPvq5-hJEJQ8-42" value="reducible to" style="endArrow=classicThin;html=1;rounded=0;endFill=1;" parent="1" edge="1">
          <mxGeometry width="50" height="50" relative="1" as="geometry">
            <mxPoint x="40" y="200" as="sourcePoint" />
            <mxPoint x="140" y="200" as="targetPoint" />
          </mxGeometry>
        </mxCell>
        <mxCell id="pTm49G6YxPvq5-hJEJQ8-45" value="KOR" style="text;html=1;strokeColor=none;fillColor=none;align=center;verticalAlign=middle;whiteSpace=wrap;rounded=0;" parent="1" vertex="1">
          <mxGeometry x="340" y="170" width="40" height="30" as="geometry" />
        </mxCell>
        <mxCell id="pTm49G6YxPvq5-hJEJQ8-46" value="" style="endArrow=classicThin;html=1;rounded=0;endFill=1;" parent="1" source="pTm49G6YxPvq5-hJEJQ8-25" target="pTm49G6YxPvq5-hJEJQ8-45" edge="1">
          <mxGeometry width="50" height="50" relative="1" as="geometry">
            <mxPoint x="330" y="140" as="sourcePoint" />
            <mxPoint x="410" y="140" as="targetPoint" />
          </mxGeometry>
        </mxCell>
      </root>
    </mxGraphModel>
  </diagram>
</mxfile>
